<?xml version="1.0" encoding="UTF-8"?>
<svg id="Layer_1" xmlns="http://www.w3.org/2000/svg" version="1.1" viewBox="0 0 425.61 550.42">
  <!-- Generator: Adobe Illustrator 29.1.0, SVG Export Plug-In . SVG Version: 2.1.0 Build 142)  -->
  <defs>
    <style>
      .st0 {
        fill: #fff;
        fill-rule: evenodd;
        stroke: #231f20;
        stroke-miterlimit: 10;
      }
    </style>
  </defs>
  <path class="st0" d="M188.47,67.74l6.15-2.25,8.48-2.55,5.78-3.82,4.27-5.62,3.52-5.25,2.32-6.45,2.25-2.25,8.1-3.75,8.1-1.87,3.83.08,6.15,1.87h2.33l1.95-1.12,1.5-2.25,2.4-5.25,4.2-4.95,3.45-4.87,1.58-.37h10.8l4.95-2.25,6.6-1.42,6.9-1.5,8.85-4.87,10.8-6.45,1.2.38,5.7,6.08,9.23,5.7,3.07,1.13,5.78.37,3.45,1.95,2.7,4.5.75,1.5,6.9,5.32,4.27,3,2.7.45,4.95-2.25,4.27-.75,4.2,1.12,6.9,2.25h5.02l1.57,1.2-.82,2.25-3.83,5.25-.45,3,1.95,5.33.75,2.62-.75,1.12-1.95-.37-1.88-1.13-1.95.38-3.52,6-4.95,4.12v2.32l.38,1.5,3.82,1.5,5.4,2.62,3,3.08,4.65,6.75,5.32,9.45,1.12,9.45,2.33,6.83,1.87,5.62.75,11.33-.45,13.2-.75,2.25v4.2l-4.27,4.5v3l3.83,3.82.75,3.37,3.07,3.75-.37,1.58-2.7,4.12.37,1.5,1.5,1.5,3.9.75,4.95-1.12,1.95.08,2.32,3,1.5,4.12,3.45,13.95,2.63,8.7,4.65,4.57,1.12,2.25-.37,2.25-3.52,4.95-5.78,1.8-6.9,4.58-2.7,3-3.15,5.62-.37,5.32.37,5.25.75,5.25-1.2,4.95.37,6.75.38,3.45.75,3.75-1.5,5.62,1.5,9.83-.83,4.95.75,7.5,1.58,4.57-.08,3.38-1.13,4.12v4.2l.75,1.88,1.95-.38,2.25-1.12,1.5,33.22,8.92,210.37-51.15.08-333.22.15-5.32-7.5-.38-1.95,1.5-3-.37-1.88-1.88-.75-10.42,1.12-1.5-1.58-3.07-5.62-1.13-4.2-.82-.75-4.58,1.5-1.2-.75-.75-1.12-.38-1.12-2.7-7.2-1.5-5.62.38-1.5,1.57-1.5,1.13-2.7-.75-3.75-1.5-2.62v-2.25l.75-2.7,2.33-3.38,5.02-7.12,5.47-11.7,3.82-7.5-.37-1.58-3.08-7.13-1.12-5.7.37-2.25.45-6.45,1.5-5.25,1.57-3.75,1.95-3,5.02-8.33.38-2.62-2.25-3.38-.83-4.2.83-3.75,3.83-5.25.45-1.58-1.2-5.25-3.83-5.33v-3l-1.05-12.07-1.95-3-1.12-1.12-.75-7.95-.75-4.12,2.7-3.45.75-4.12v-4.88l1.95-3.37-.38-2.33.38-2.25,1.2-4.12-.75-4.95,1.12-1.12,6.98-6.75v-1.5l-.75-2.62-1.12-3.82.75-1.88,3.45-3-.37-1.5-4.58-10.2-1.12-.37-3.15.75-1.12-.38-.75-1.87v-4.95l-1.87-1.87-.83-1.13,1.58-2.62-.75-1.5-3.08-2.7-1.95-2.62-3-13.2.37-1.88,2.7-4.58-2.33.38-1.87-1.12-1.95-1.5-.75-1.88h9.98l2.33-2.62,30.52-31.58,22.35-22.65,39.37-41.7,3.07-3.83,24.75-26.32,6.15-6.75,2.33-2.25,3.08-4.12,25.5-29.77,9.3-11.33,1.5-1.12h0Z"/>
</svg>